HIERARCHY
ROOT root
{
	OFFSET	0	13.1	24.9
	CHANNELS 6  Xposition Yposition Zposition Xrotation Yrotation Zrotation
	JOINT spine_1
	{
		OFFSET	0	9.99999	0
		CHANNELS 3  Xrotation Yrotation Zrotation
		JOINT spine_2
		{
			OFFSET	0	112	-10
			CHANNELS 3  Xrotation Yrotation Zrotation
			JOINT spine_3
			{
				OFFSET	0	206.5	19.3
				CHANNELS 3  Xrotation Yrotation Zrotation
				JOINT spine_4
				{
					OFFSET	0	110.4	14.6
					CHANNELS 3  Xrotation Yrotation Zrotation
					JOINT neck_1
					{
						OFFSET	0	71.8	-50.3
						CHANNELS 3  Xrotation Yrotation Zrotation
						JOINT neck_2
						{
							OFFSET	0	86.2	-25.8
							CHANNELS 3  Xrotation Yrotation Zrotation
							JOINT head_ee
							{
								OFFSET	0	179.8	-8.7
								CHANNELS 3  Xrotation Yrotation Zrotation
								End Site
								{
									OFFSET	1	0	0
								}
							}
						}
					}
					JOINT left_clavicle
					{
						OFFSET	-43.2	22.4	-70.8
						CHANNELS 3  Xrotation Yrotation Zrotation
						JOINT left_shoulder
						{
							OFFSET	-93.9	-5.79999	48.7
							CHANNELS 3  Xrotation Yrotation Zrotation
							JOINT left_elbow
							{
								OFFSET	-291.4	-30.8	15.2
								CHANNELS 3  Xrotation Yrotation Zrotation
								JOINT left_lowarm_twist
								{
									OFFSET	-110.7	-3.89999	13.6
									CHANNELS 3  Xrotation Yrotation Zrotation
									JOINT left_hand
									{
										OFFSET	-110.7	-3.89999	13.6
										CHANNELS 3  Xrotation Yrotation Zrotation
										JOINT left_ee
										{
											OFFSET	-80.8	-5.10001	12.1
											CHANNELS 3  Xrotation Yrotation Zrotation
											End Site
											{
												OFFSET	1	0	0
											}
										}
									}
								}
							}
						}
					}
					JOINT right_clavicle
					{
						OFFSET	43.2	22.4	-70.8
						CHANNELS 3  Xrotation Yrotation Zrotation
						JOINT right_shoulder
						{
							OFFSET	93.9	-5.79999	48.7
							CHANNELS 3  Xrotation Yrotation Zrotation
							JOINT right_elbow
							{
								OFFSET	291.4	-30.8	15.2
								CHANNELS 3  Xrotation Yrotation Zrotation
								JOINT right_lowarm_twist
								{
									OFFSET	110.7	-3.89999	13.6
									CHANNELS 3  Xrotation Yrotation Zrotation
									JOINT right_hand
									{
										OFFSET	110.7	-3.89999	13.6
										CHANNELS 3  Xrotation Yrotation Zrotation
										JOINT right_ee
										{
											OFFSET	80.8	-5.10001	12.1
											CHANNELS 3  Xrotation Yrotation Zrotation
											End Site
											{
												OFFSET	1	0	0
											}
										}
									}
								}
							}
						}
					}
				}
			}
		}
	}
	JOINT left_hip
	{
		OFFSET	-82.8	-127.5	0.300001
		CHANNELS 3  Xrotation Yrotation Zrotation
		JOINT left_knee
		{
			OFFSET	-28.2	-396.7	2.2
			CHANNELS 3  Xrotation Yrotation Zrotation
			JOINT left_ankle
			{
				OFFSET	-11.7	-411.3	35.4
				CHANNELS 3  Xrotation Yrotation Zrotation
				JOINT left_toes
				{
					OFFSET	0	-60	-88.6
					CHANNELS 3  Xrotation Yrotation Zrotation
					JOINT left_foot_ee
					{
						OFFSET	-22.5	-16.5	-42.2
						CHANNELS 3  Xrotation Yrotation Zrotation
						End Site
						{
							OFFSET	1	0	0
						}
					}
				}
			}
		}
	}
	JOINT right_hip
	{
		OFFSET	82.8	-127.5	0.300001
		CHANNELS 3  Xrotation Yrotation Zrotation
		JOINT right_knee
		{
			OFFSET	28.2	-396.7	2.2
			CHANNELS 3  Xrotation Yrotation Zrotation
			JOINT right_ankle
			{
				OFFSET	11.7	-411.3	35.4
				CHANNELS 3  Xrotation Yrotation Zrotation
				JOINT right_toes
				{
					OFFSET	0	-60	-88.6
					CHANNELS 3  Xrotation Yrotation Zrotation
					JOINT right_foot_ee
					{
						OFFSET	22.5	-16.5	-42.2
						CHANNELS 3  Xrotation Yrotation Zrotation
						End Site
						{
							OFFSET	1	0	0
						}
					}
				}
			}
		}
	}
}
MOTION
Frames: 9
Frame Time: 0.02
2344.16 601.205 -667.611 -154.037 -57.9469 -152.271 5.41437 -0.211896 -1.30717 5.41532 -0.128295 -1.31801 5.41735 0.0267012 -1.32396 5.41495 -0.182711 -1.31157 -5.78744 1.33933 0.563018 -5.78633 2.05554 0.816137 -0.0 0.0 -0.0 2.72725 5.27012 5.60948 -27.5063 -26.4758 80.6957 0.3247 -9.13777 0.0259473 -27.5412 -1.7338 3.03014 2.73812 28.2728 27.0828 -0.0 0.0 -0.0 4.79211 9.26981 -8.79876 0.0985358 32.6545 -63.3064 1.78297 41.4481 -0.67463 -70.6442 6.62827 -5.30758 -7.44897 -21.974 37.8512 0.0 0.0 0.0 44.2869 -15.5517 -4.99981 -4.72859 0.165604 0.706596 1.98776 7.87262 -0.28947 -28.1424 0.0 0.0 -0.0 0.0 -0.0 4.88846 11.783 -9.62023 -13.9082 -0.31846 -2.10541 36.7775 -9.05812 4.57722 13.3856 -0.0 -0.0 0.0 0.0 0.0 
2381.84 600.466 -655.475 -155.245 -57.1433 -152.799 5.51732 -0.237678 -1.44336 5.51846 -0.145362 -1.45555 5.521 0.0231861 -1.46261 5.51807 -0.208072 -1.44792 -7.24289 0.214586 0.666828 -7.24162 -0.0802948 0.709397 -0.0 0.0 -0.0 3.68014 5.79895 7.38044 -29.9891 -24.8309 77.3499 0.348281 -9.78898 0.0298246 -25.4052 -1.54897 2.82818 2.97024 27.0608 28.3445 -0.0 0.0 -0.0 4.45354 8.61867 -8.13824 -2.0354 32.1113 -63.1046 1.70848 40.2388 -0.625911 -71.8187 6.7783 -5.31487 -7.13117 -19.2094 38.1584 0.0 0.0 0.0 43.5525 -14.5436 -5.11719 -8.95937 0.263913 1.34826 6.31335 10.0892 -0.908758 -24.6477 0.0 0.0 -0.0 0.0 -0.0 3.97899 12.5393 -9.05849 -16.7287 -0.320242 -2.53811 38.2786 -11.6002 4.73512 14.6341 -0.0 -0.0 0.0 0.0 0.0 
2408.42 604.389 -647.373 -157.793 -55.9723 -154.601 5.60589 -0.224483 -1.5147 5.60716 -0.127655 -1.52592 5.60925 0.0465257 -1.53054 5.60603 -0.19575 -1.51868 -8.25394 -0.545937 0.781302 -8.25229 -1.56955 0.651813 -0.0 0.0 -0.0 4.56673 6.22159 9.01507 -31.1799 -23.6256 75.3691 0.367994 -10.3314 0.033268 -23.8766 -1.4214 2.67952 3.12996 26.2177 29.2374 -0.0 0.0 -0.0 4.29222 8.13845 -7.83635 -3.7008 31.7759 -63.2598 1.65624 39.364 -0.592468 -72.6549 6.88517 -5.31818 -6.9172 -17.2498 38.3337 0.0 0.0 0.0 43.0591 -13.8403 -5.13096 -11.9216 0.304423 1.80093 9.38876 11.6448 -1.34014 -22.1951 0.0 0.0 -0.0 0.0 -0.0 3.26433 13.014 -8.99627 -18.9016 -0.307092 -2.87122 39.2742 -13.3983 4.84529 15.4924 -0.0 -0.0 0.0 0.0 0.0 
2435.56 608.634 -638.801 -159.728 -55.3384 -156.001 5.63503 -0.246867 -1.37532 5.63607 -0.15886 -1.38823 5.63883 -0.00085256 -1.39729 5.63618 -0.221497 -1.37963 -9.69844 -1.18161 1.74901 -9.69224 -3.41219 1.42149 -0.0 0.0 -0.0 5.27298 6.48512 10.3121 -29.942 -23.0114 73.2129 0.36068 -10.1304 0.031969 -22.8424 -1.33738 2.57706 3.27848 26.9316 30.3423 -0.0 0.0 -0.0 3.96026 7.61594 -7.18877 -5.96872 31.763 -64.7336 1.59078 38.2362 -0.551452 -74.4893 7.11962 -5.31993 -6.70176 -15.3966 38.2969 0.0 0.0 0.0 41.5052 -13.6147 -5.90409 -19.5248 0.30099 2.96665 14.799 15.8368 -2.08802 -19.0716 0.0 0.0 -0.0 0.0 -0.0 3.39844 13.5215 -9.18157 -21.305 -0.277847 -3.2388 38.0751 -15.9868 4.77082 16.5294 -0.0 -0.0 0.0 0.0 0.0 
2457.81 609.815 -630.383 -162.344 -54.6033 -158.11 5.61241 -0.202858 -1.42291 5.61353 -0.111913 -1.43294 5.61517 0.0514575 -1.43638 5.61234 -0.176014 -1.42648 -11.6856 -1.62554 2.30896 -11.6801 -4.57735 1.77643 -0.0 0.0 -0.0 5.52189 6.31657 10.7682 -28.4135 -22.5242 71.5915 0.37109 -10.4164 0.0338256 -21.6978 -1.24656 2.46193 3.50472 27.4818 31.9401 -0.0 0.0 -0.0 4.34398 9.23302 -7.87131 -5.77143 31.7121 -67.1671 1.37116 34.1838 -0.42163 -75.8077 7.28802 -5.31652 -6.41041 -14.0234 37.1361 0.0 0.0 0.0 41.2028 -13.556 -6.44402 -24.5182 0.214712 3.72778 17.7358 20.1448 -2.50863 -17.2467 0.0 0.0 -0.0 0.0 -0.0 3.58452 13.9592 -9.28255 -25.4019 -0.192549 -3.86157 35.4111 -19.0547 4.56393 17.8343 -0.0 -0.0 0.0 0.0 0.0 
2476.58 611.631 -625.458 -163.51 -54.7683 -159.069 5.51607 -0.225692 -1.43863 5.51721 -0.133701 -1.45007 5.51945 0.0341809 -1.45582 5.51654 -0.196143 -1.44295 -14.826 -1.45438 1.87886 -14.8289 -3.90196 1.30004 -0.0 0.0 -0.0 5.22272 5.67761 10.2116 -25.6089 -22.6439 70.9326 0.437088 -12.2173 0.0467783 -20.7805 -1.17546 2.36838 3.64969 28.3097 33.0311 -0.0 0.0 -0.0 3.92289 10.4519 -6.91057 -8.06204 30.6906 -67.8465 1.20142 30.7577 -0.33046 -76.4571 7.37092 -5.3134 -6.26133 -12.4809 37.2244 0.0 0.0 0.0 40.1092 -13.8694 -6.14796 -27.3353 0.136872 4.15305 19.8788 23.9991 -2.83729 -15.9386 0.0 0.0 -0.0 0.0 -0.0 6.26186 13.9232 -9.19925 -31.1811 0.00298319 -4.72659 31.3366 -23.7188 4.22881 19.0501 -0.0 -0.0 0.0 0.0 0.0 
2497.42 618.327 -625.026 -164.145 -55.159 -159.517 5.46341 -0.272024 -1.42778 5.46452 -0.180629 -1.44219 5.46795 -0.0120506 -1.45341 5.46509 -0.241414 -1.43327 -17.0194 -1.31538 1.58587 -17.0252 -3.41382 1.0052 -0.0 0.0 -0.0 5.20102 5.19146 10.1652 -23.2194 -22.8398 70.7508 0.48887 -13.6135 0.058353 -20.129 -1.12588 2.30126 3.75194 28.8905 33.7943 -0.0 0.0 -0.0 3.60348 11.2697 -6.18174 -9.93596 29.9604 -68.3663 1.08922 28.3492 -0.27511 -76.9121 7.42896 -5.31065 -6.15997 -11.4005 37.2799 0.0 0.0 0.0 39.2823 -14.0875 -5.91344 -29.3395 0.0687968 4.4531 21.4085 26.7096 -3.08383 -15.0394 0.0 0.0 -0.0 0.0 -0.0 8.87551 13.8197 -9.36473 -35.2243 0.191218 -5.31825 28.4059 -26.979 3.96938 19.8861 -0.0 -0.0 0.0 0.0 0.0 
2530.36 624.34 -623.444 -164.08 -57.2744 -158.808 5.45038 -0.532725 -1.70761 5.4519 -0.423003 -1.73804 5.46317 -0.218419 -1.77537 5.45912 -0.496024 -1.71863 -17.8727 -2.09935 1.61135 -17.8946 -4.91545 0.706762 -0.0 0.0 -0.0 5.55802 4.13227 10.8207 -19.6859 -23.2003 72.2737 0.473408 -13.1983 0.0547683 -19.8652 -1.10602 2.27392 3.78281 30.684 34.1774 -0.0 0.0 -0.0 3.32081 11.7259 -5.55392 -13.2209 28.8634 -68.6877 0.958803 25.4055 -0.216129 -78.0909 7.57918 -5.30138 -6.08456 -10.6948 37.2268 0.0 0.0 0.0 36.5979 -14.9135 -3.37876 -27.2514 0.13949 4.14045 21.3792 28.023 -3.10621 -14.6463 0.0 0.0 -0.0 0.0 -0.0 12.0014 13.5603 -9.96182 -40.5249 0.500495 -6.07159 25.1859 -28.4572 3.6096 20.4932 -0.0 -0.0 0.0 0.0 0.0 
2555.5 625.313 -620.817 -163.954 -59.298 -158.524 5.70761 -0.722395 -1.95598 5.70954 -0.596492 -1.99797 5.72817 -0.370189 -2.05196 5.72296 -0.68955 -1.9678 -17.8973 -2.4085 1.75209 -17.9264 -5.58602 0.719054 -0.0 0.0 -0.0 6.06271 3.04404 11.771 -16.4869 -23.4211 73.1471 0.479687 -13.3671 0.0562109 -19.6193 -1.08763 2.24836 3.86335 30.841 34.7326 -0.0 0.0 -0.0 3.34819 11.8958 -5.59718 -14.994 28.0838 -71.0161 0.87534 23.4422 -0.181613 -79.0083 7.6959 -5.292 -6.00276 -11.0311 36.2923 0.0 0.0 0.0 34.6693 -15.6843 -1.64939 -25.825 0.181207 3.92551 21.4535 28.318 -3.12223 -14.3694 0.0 0.0 -0.0 0.0 -0.0 15.4594 12.8612 -10.0262 -47.9584 1.04905 -7.07414 22.6789 -28.3017 3.28309 20.9695 -0.0 -0.0 0.0 0.0 0.0 
